<?xml version="1.0" encoding="UTF-8"?>
<svg width="45px" height="57px" viewBox="0 0 45 57" version="1.1" xmlns="http://www.w3.org/2000/svg" xmlns:xlink="http://www.w3.org/1999/xlink">
    <!-- Generator: Sketch 63.1 (92452) - https://sketch.com -->
    <title>1.0_landing/icn_business_hover</title>
    <desc>Created with Sketch.</desc>
    <g id="Page-1" stroke="none" stroke-width="1" fill="none" fill-rule="evenodd">
        <g id="Artboard" transform="translate(-214.000000, -319.000000)">
            <g id="Group-7" transform="translate(153.000000, 198.777796)">
                <path d="M66.4182111,159.449397 C73.7852306,157.43599 79.4714635,156.429287 83.4769098,156.429287 C87.482356,156.429287 93.1685885,157.43599 100.535607,159.449396 C103.144451,160.162391 104.95382,162.532618 104.95382,165.237137 L104.95382,174.988155 L104.95382,174.988155 L62,174.988155 L62,165.237134 C62.0000036,162.532617 63.8093709,160.162393 66.4182111,159.449397 Z" id="Rectangle-Copy-15" stroke="#FFFFFF" stroke-width="2" stroke-linecap="round" stroke-linejoin="round"></path>
                <g id="Group-5">
                    <rect id="Rectangle-Copy-16" x="0" y="116.222204" width="64" height="64"></rect>
                    <rect id="Rectangle-Copy-17" x="57" y="116.444408" width="64" height="64"></rect>
                    <g id="Group-6" transform="translate(9.000000, 5.000000)" stroke="#FFFFFF" stroke-width="2">
                        <path d="M62.2129736,132.418916 C61.7278645,132.418916 61.0002007,132.418916 60.0299824,132.418916 C59.1117336,132.418916 58.3673458,131.676767 58.3673458,130.76128 L58.3673458,125.906774 C58.3673458,123.160312 60.6005091,120.933865 63.3552557,120.933865" id="Path-Copy-16"></path>
                        <path d="M83.7480738,127.261003 L82.3446895,127.261003 L66.0961147,127.261003 C63.5949281,127.261003 61.5673157,125.246599 61.5673157,122.761705 L61.5673157,121.936587 C61.5673157,118.995993 63.9667682,116.612171 66.9266428,116.612171 L78.7365289,116.612171 C84.6562782,116.612171 89.4551831,121.379816 89.4551831,127.261003 L89.4551831,133.50243" id="Path-Copy-18" fill="#FF671D"></path>
                        <polygon id="Rectangle-Copy-19" fill="#FF671D" stroke-linejoin="round" points="66.5450702 145.980544 74.3815836 145.980544 74.3815836 152.46311 70.4633269 154.823845 66.5450702 152.46311"></polygon>
                        <polygon id="Rectangle-Copy-21" fill="#FF671D" stroke-linejoin="round" points="74.3815836 145.980544 82.2180971 145.980544 82.2180971 152.46311 78.2998403 154.823845 74.3815836 152.46311"></polygon>
                        <path d="M86.9846453,138.280516 C88.734621,138.280516 90.1532567,136.866147 90.1532567,135.121434 C90.1532567,133.376721 88.734621,131.962352 86.9846453,131.962352" id="Path-Copy-20" fill="#FF671D"></path>
                        <path d="M58.6364463,138.280516 C60.386422,138.280516 61.8050577,136.866147 61.8050577,135.121434 C61.8050577,133.376721 60.386422,131.962352 58.6364463,131.962352" id="Path-Copy-22" fill="#FF671D" transform="translate(60.220752, 135.121434) scale(-1, 1) translate(-60.220752, -135.121434) "></path>
                        <path d="M84.0611865,126.455364 L64.7653579,126.455364 C64.2130731,126.455364 63.7130731,126.679222 63.3511443,127.04115 C62.9892155,127.403079 62.7653579,127.903079 62.7653579,128.455364 L62.7653579,139.921642 C62.7653579,143.138125 64.0690951,146.050103 66.176953,148.157961 C68.2848109,150.265819 71.1967895,151.569556 74.4132722,151.569556 C77.6297549,151.569556 80.5417335,150.265819 82.6495914,148.157961 C84.7574493,146.050103 86.0611865,143.138125 86.0611865,139.921642 L86.0611865,128.455364 C86.0611865,127.903079 85.8373289,127.403079 85.4754001,127.04115 C85.1134713,126.679222 84.6134713,126.455364 84.0611865,126.455364 Z" id="Rectangle-Copy-23" fill="#FF671D"></path>
                    </g>
                </g>
            </g>
            <g id="Group-4" transform="translate(232.500000, 241.777796)" stroke="#FF671D" stroke-width="2">
                <g id="Group-2">
                    <path d="M2.09300427,119.999953 L1.66027303,116.444408 M6.12215284,116.444408 L5.51680728,119.999953" id="Shape-Copy-2"></path>
                    <polyline id="Path-Copy-23" points="7.28242587 131.89592 5.73085534 119.999953 2.07039728 119.999953 0.5 131.89592"></polyline>
                </g>
            </g>
            <path d="M219.418211,358.227193 C226.785231,356.213786 232.471463,355.207083 236.47691,355.207083 C240.482356,355.207083 246.168588,356.213786 253.535607,358.227193 C256.144451,358.940187 257.95382,361.310414 257.95382,364.014933 L257.95382,373.765951 L257.95382,373.765951 L215,373.765951 L215,364.01493 C215.000004,361.310413 216.809371,358.940189 219.418211,358.227193 Z" id="Rectangle-Copy-25" stroke="#FF671D" stroke-width="2" stroke-linecap="round" stroke-linejoin="round"></path>
            <rect id="Rectangle-Copy-26" x="153" y="315" width="64" height="64"></rect>
            <rect id="Rectangle-Copy-8" x="153" y="272" width="64" height="64"></rect>
            <g id="Group-6" transform="translate(162.000000, 203.777796)" stroke="#FF671D" stroke-width="2">
                <path d="M62.2129736,132.418916 C61.7278645,132.418916 61.0002007,132.418916 60.0299824,132.418916 C59.1117336,132.418916 58.3673458,131.676767 58.3673458,130.76128 L58.3673458,125.906774 C58.3673458,123.160312 60.6005091,120.933865 63.3552557,120.933865" id="Path-Copy-25"></path>
                <path d="M83.7480738,127.261003 L82.3446895,127.261003 L66.0961147,127.261003 C63.5949281,127.261003 61.5673157,125.246599 61.5673157,122.761705 L61.5673157,121.936587 C61.5673157,118.995993 63.9667682,116.612171 66.9266428,116.612171 L78.7365289,116.612171 C84.6562782,116.612171 89.4551831,121.379816 89.4551831,127.261003 L89.4551831,133.50243" id="Path-Copy-27" fill="#3C3C3B"></path>
                <polygon id="Rectangle-Copy-28" fill="#3C3C3B" stroke-linejoin="round" points="66.5450702 145.980544 74.3815836 145.980544 74.3815836 152.46311 70.4633269 154.823845 66.5450702 152.46311"></polygon>
                <polygon id="Rectangle-Copy-30" fill="#3C3C3B" stroke-linejoin="round" points="74.3815836 145.980544 82.2180971 145.980544 82.2180971 152.46311 78.2998403 154.823845 74.3815836 152.46311"></polygon>
                <path d="M86.9846453,138.280516 C88.734621,138.280516 90.1532567,136.866147 90.1532567,135.121434 C90.1532567,133.376721 88.734621,131.962352 86.9846453,131.962352" id="Path-Copy-29" fill="#3C3C3B"></path>
                <path d="M58.6364463,138.280516 C60.386422,138.280516 61.8050577,136.866147 61.8050577,135.121434 C61.8050577,133.376721 60.386422,131.962352 58.6364463,131.962352" id="Path-Copy-31" fill="#3C3C3B" transform="translate(60.220752, 135.121434) scale(-1, 1) translate(-60.220752, -135.121434) "></path>
                <path d="M84.0611865,126.455364 L64.7653579,126.455364 C64.2130731,126.455364 63.7130731,126.679222 63.3511443,127.04115 C62.9892155,127.403079 62.7653579,127.903079 62.7653579,128.455364 L62.7653579,139.921642 C62.7653579,143.138125 64.0690951,146.050103 66.176953,148.157961 C68.2848109,150.265819 71.1967895,151.569556 74.4132722,151.569556 C77.6297549,151.569556 80.5417335,150.265819 82.6495914,148.157961 C84.7574493,146.050103 86.0611865,143.138125 86.0611865,139.921642 L86.0611865,128.455364 C86.0611865,127.903079 85.8373289,127.403079 85.4754001,127.04115 C85.1134713,126.679222 84.6134713,126.455364 84.0611865,126.455364 Z" id="Rectangle-Copy-32" fill="#3C3C3B"></path>
                <path d="M63,131.444408 L70.38937,131.444408 C71.2788964,131.444408 72,131.965809 72,132.60899 L72,135.279825 C72,135.923006 71.2788964,136.444408 70.38937,136.444408 L63,136.444408" id="Path-Copy-32"></path>
                <path d="M77,131.444408 L84.5,131.444408 C85.3284271,131.444408 86,131.965809 86,132.60899 L86,135.279825 C86,135.923006 85.3284271,136.444408 84.5,136.444408 L77,136.444408 L77,136.444408" id="Path-Copy-33" transform="translate(81.500000, 133.944408) scale(-1, 1) translate(-81.500000, -133.944408) "></path>
                <line x1="72" y1="133.944408" x2="77" y2="133.944408" id="Path-23-Copy"></line>
            </g>
        </g>
    </g>
</svg>